<svg width="20" height="20" viewBox="0 0 20 20" fill="none" xmlns="http://www.w3.org/2000/svg">
<path fill-rule="evenodd" clip-rule="evenodd" d="M15.8333 1.66669C16.1023 2.91926 17.0807 3.89771 18.3333 4.16669C17.0807 4.43566 16.1023 5.41411 15.8333 6.66669C15.5643 5.41411 14.5859 4.43566 13.3333 4.16669C14.5859 3.89771 15.5643 2.91926 15.8333 1.66669ZM7.56 1.83336C8.31958 5.37062 11.0827 8.13377 14.62 8.89336C11.0827 9.65294 8.31958 12.4161 7.56 15.9534C6.80042 12.4161 4.03726 9.65294 0.5 8.89336C4.03726 8.13377 6.80042 5.37062 7.56 1.83336ZM18.3333 15C16.6632 14.6414 15.3586 13.3368 15 11.6667C14.6413 13.3368 13.3367 14.6414 11.6666 15C13.3367 15.3587 14.6413 16.6633 15 18.3334C15.3586 16.6633 16.6632 15.3587 18.3333 15Z" fill="#387FF5"/>
</svg>
