<svg width="24" height="24" viewBox="0 0 24 24" fill="none" xmlns="http://www.w3.org/2000/svg">
<path d="M19.98 5.16936C18.0694 3.63186 15.0469 3.37123 14.9175 3.36186C14.7169 3.34498 14.5256 3.45748 14.4431 3.64311C14.4356 3.65436 14.37 3.80623 14.2969 4.04248C15.5606 4.25623 17.1131 4.68561 18.5175 5.55748C18.7425 5.69623 18.8119 5.99248 18.6731 6.21748C18.5812 6.36561 18.4256 6.44623 18.2644 6.44623C18.1781 6.44623 18.09 6.42186 18.0112 6.37311C15.5962 4.87498 12.5812 4.79998 12 4.79998C11.4187 4.79998 8.40187 4.87498 5.98874 6.37311C5.76374 6.51373 5.46749 6.44436 5.32874 6.21936C5.18812 5.99248 5.25749 5.69811 5.48249 5.55748C6.88687 4.68748 8.43937 4.25623 9.70312 4.04436C9.62999 3.80623 9.56437 3.65623 9.55874 3.64311C9.47437 3.45748 9.28499 3.34123 9.08249 3.36186C8.95312 3.37123 5.93062 3.63186 3.99374 5.18998C2.98312 6.12561 0.959991 11.5931 0.959991 16.32C0.959991 16.4044 0.982491 16.485 1.02374 16.5581C2.41874 19.0106 6.22687 19.6519 7.09499 19.68C7.09874 19.68 7.10437 19.68 7.10999 19.68C7.26374 19.68 7.40812 19.6069 7.49812 19.4831L8.37562 18.2756C6.00749 17.6644 4.79812 16.6256 4.72874 16.5637C4.52999 16.3894 4.51124 16.0856 4.68749 15.8869C4.86187 15.6881 5.16562 15.6694 5.36437 15.8437C5.39249 15.87 7.61999 17.76 12 17.76C16.3875 17.76 18.615 15.8625 18.6375 15.8437C18.8362 15.6712 19.1381 15.6881 19.3144 15.8887C19.4887 16.0875 19.47 16.3894 19.2712 16.5637C19.2019 16.6256 17.9925 17.6644 15.6244 18.2756L16.5019 19.4831C16.5919 19.6069 16.7362 19.68 16.89 19.68C16.8956 19.68 16.9012 19.68 16.905 19.68C17.7731 19.6519 21.5812 19.0106 22.9762 16.5581C23.0175 16.485 23.04 16.4044 23.04 16.32C23.04 11.5931 21.0169 6.12561 19.98 5.16936ZM8.87999 14.4C7.95187 14.4 7.19999 13.5412 7.19999 12.48C7.19999 11.4187 7.95187 10.56 8.87999 10.56C9.80812 10.56 10.56 11.4187 10.56 12.48C10.56 13.5412 9.80812 14.4 8.87999 14.4ZM15.12 14.4C14.1919 14.4 13.44 13.5412 13.44 12.48C13.44 11.4187 14.1919 10.56 15.12 10.56C16.0481 10.56 16.8 11.4187 16.8 12.48C16.8 13.5412 16.0481 14.4 15.12 14.4Z" fill="#4C62C5"/>
</svg>
